Coordinates
version=1
nRows=11
nColumns=40
inDegrees=yes

Units are S.I. units (second, meters, Newtons, ...)
Angles are in degrees.

endheader
time	pelvis_tilt	pelvis_list	pelvis_rotation	pelvis_tx	pelvis_ty	pelvis_tz	hip_flexion_r	hip_adduction_r	hip_rotation_r	knee_angle_r	knee_angle_r_beta	ankle_angle_r	subtalar_angle_r	mtp_angle_r	hip_flexion_l	hip_adduction_l	hip_rotation_l	knee_angle_l	knee_angle_l_beta	ankle_angle_l	subtalar_angle_l	mtp_angle_l	lumbar_extension	lumbar_bending	lumbar_rotation	arm_flex_r	arm_add_r	arm_rot_r	elbow_flex_r	pro_sup_r	wrist_flex_r	wrist_dev_r	arm_flex_l	arm_add_l	arm_rot_l	elbow_flex_l	pro_sup_l	wrist_flex_l	wrist_dev_l
     47.79250000	     -7.80460226	     -4.16727956	     -7.15738431	      1.08090037	      0.92754586	      0.52427951	     17.50479258	      4.26819085	     -5.10731686	     16.51122668	     16.51122668	      8.68557320	      1.76722095	     -4.43500861	      3.58350419	    -12.10807546	    -14.68770532	     15.68045168	     15.68045168	     16.18103108	     -4.18535601	      1.78189739	     -7.27283834	      6.91950837	     -1.00685517	     -7.00974353	    -16.22669518	     -6.82874385	     40.42645977	     45.13127540	      0.00000000	      0.00000000	     26.72032960	    -18.22485663	     -8.90851202	     72.07587349	     47.62451207	      0.00000000	      0.00000000
     47.81342857	     -7.79628355	     -4.28772894	     -6.45706727	      1.08124632	      0.92753952	      0.52885738	     17.06234937	      4.57111465	     -5.65634377	     16.37105498	     16.37105498	      9.02008050	      1.57538666	     -4.43070139	      4.46334516	    -12.90312865	    -13.98676280	     17.59802214	     17.59802214	     16.08426794	     -4.22907937	      1.65633444	     -7.31916267	      6.88311743	     -1.18289477	     -5.72480503	    -16.66023065	     -6.41267006	     41.87870967	     45.07124241	      0.00000000	      0.00000000	     25.20138964	    -17.65286570	     -7.65268385	     68.58867111	     47.47324826	      0.00000000	      0.00000000
     47.83435714	     -7.73008101	     -4.27834555	     -5.78929531	      1.08163245	      0.92748866	      0.53332191	     16.68430588	      4.75736550	     -5.96281604	     16.44310503	     16.44310503	      9.46359138	      1.13085948	     -4.38284146	      5.41626692	    -13.55505593	    -13.19893092	     19.71044126	     19.71044126	     15.96747114	     -4.25375479	      1.57317756	     -7.27877533	      6.70256483	     -0.58412620	     -5.35624333	    -17.56890036	     -4.81129327	     44.56584256	     44.92064694	      0.00000000	      0.00000000	     24.86920263	    -16.64443455	     -5.06973523	     62.34717361	     47.20038248	      0.00000000	      0.00000000
     47.85528571	     -7.63102856	     -4.31819240	     -5.08507188	      1.08193255	      0.92740149	      0.53750378	     16.26404995	      4.97634256	     -6.35322779	     16.48000305	     16.48000305	      9.80337056	      0.71057418	     -4.38479419	      6.71829212	    -14.24863654	    -12.08375591	     22.38778335	     22.38778335	     15.42297742	     -5.00146757	      1.03565671	     -7.40078294	      6.58285880	     -0.78266882	     -4.06959237	    -18.08821009	     -4.49830144	     46.39820443	     44.86172304	      0.00000000	      0.00000000	     22.92091802	    -15.96303207	     -3.83010013	     58.96247292	     47.04859850	      0.00000000	      0.00000000
     47.87621429	     -7.41172826	     -4.33588415	     -4.39473532	      1.08223776	      0.92728140	      0.54150420	     15.83725632	      5.17018169	     -6.63711702	     16.74004489	     16.74004489	     10.24757152	      0.05982929	     -4.26324103	      8.09018548	    -14.85991300	    -10.78534508	     25.33231066	     25.33231066	     14.50738888	     -6.13607888	     -0.21762078	     -7.56724433	      6.43665143	     -0.16742356	     -3.62406139	    -19.13798304	     -3.26575115	     49.34079211	     44.75648585	      0.00000000	      0.00000000	     22.22945893	    -14.85257560	     -1.57151128	     53.05930985	     46.80217323	      0.00000000	      0.00000000
     47.89714286	     -7.19009562	     -4.36572107	     -3.68176437	      1.08244211	      0.92697380	      0.54526955	     15.48143896	      5.35304677	     -6.97728696	     17.11415906	     17.11415906	     10.69339376	     -0.55391627	     -4.34201004	      9.81880577	    -15.48911477	     -9.39718410	     28.85210597	     28.85210597	     13.76653396	     -7.17338439	     -0.92481428	     -7.78785299	      6.28645902	     -0.54211173	     -1.79503044	    -19.44197564	     -3.49425411	     50.64289041	     44.73819706	      0.00000000	      0.00000000	     19.61563164	    -14.31506014	     -0.93928124	     50.58043777	     46.69718725	      0.00000000	      0.00000000
     47.91807143	     -6.96317790	     -4.20971434	     -3.02408794	      1.08247649	      0.92654345	      0.54879527	     15.35379931	      5.36904026	     -6.94233040	     17.88186460	     17.88186460	     11.27745042	     -1.69028880	     -4.05335845	     11.68014475	    -15.73086605	     -7.75011991	     32.48375696	     32.48375696	     12.44833893	     -9.13572246	     -2.12548433	     -7.91803575	      5.96992040	     -0.52693725	     -0.39941014	    -20.14830166	     -2.68534268	     52.89351739	     44.67183381	      0.00000000	      0.00000000	     18.24694458	    -13.47040325	      0.39750398	     44.70480826	     46.51053901	      0.00000000	      0.00000000
     47.93900000	     -6.61528555	     -4.29779605	     -2.35480242	      1.08246980	      0.92596721	      0.55218911	     15.05579462	      5.58301577	     -7.29608955	     18.58255293	     18.58255293	     11.78153694	     -2.31165824	     -4.16934039	     13.76299723	    -16.31940301	     -6.32806783	     36.74771661	     36.74771661	     11.54467199	    -10.36339173	     -2.76841304	     -8.31515965	      5.90695530	     -0.47742094	      1.43178203	    -20.52835714	     -2.99453990	     54.09950470	     44.65863235	      0.00000000	      0.00000000	     15.60607982	    -12.77142384	      0.88152176	     42.57925558	     46.41588280	      0.00000000	      0.00000000
     47.95992857	     -6.44008490	     -4.09049956	     -1.72036422	      1.08211689	      0.92496557	      0.55516458	     15.25638560	      5.49602377	     -7.25427530	     19.80396888	     19.80396888	     12.52864054	     -3.53454591	     -3.72359652	     16.15388135	    -16.29859937	     -4.60307434	     41.10274668	     41.10274668	     10.36603739	    -12.53829322	     -2.98564041	     -8.37687692	      5.56176759	     -0.72532116	      3.16222875	    -20.88612717	     -2.61135798	     56.31116851	     44.60846408	      0.00000000	      0.00000000	     13.68956040	    -12.08765476	      1.87018763	     37.48833309	     46.25479695	      0.00000000	      0.00000000
     47.98085714	     -6.15814455	     -4.03412805	     -1.12062297	      1.08168742	      0.92381863	      0.55798663	     15.36842037	      5.52462852	     -7.42194584	     21.06901902	     21.06901902	     13.18602158	     -4.41988108	     -3.60977623	     18.56633814	    -16.45463156	     -3.13984605	     45.71772361	     45.71772361	      9.47196518	    -14.14930744	     -2.90503190	     -8.63602813	      5.38871290	     -0.74861465	      5.09812390	    -21.09260561	     -2.84371223	     57.92175681	     44.59015293	      0.00000000	      0.00000000	     11.16035277	    -11.42282514	      2.45127921	     34.60967037	     46.13769203	      0.00000000	      0.00000000
     48.00178571	     -5.90919474	     -4.05197348	     -0.55756420	      1.08108599	      0.92237205	      0.56057249	     15.55835848	      5.61603515	     -7.63941445	     22.38469024	     22.38469024	     13.85840385	     -5.29192031	     -3.56060716	     21.05903772	    -16.60277139	     -1.76953658	     50.36700773	     50.36700773	      8.71357225	    -15.66937172	     -2.50190303	     -8.87752427	      5.32632738	     -0.65273826	      7.09027577	    -21.25374017	     -3.12308804	     59.35323298	     44.57387340	      0.00000000	      0.00000000	      8.58110345	    -10.78670508	      2.94681021	     32.20059292	     46.02898961	      0.00000000	      0.00000000
